<svg width="257" height="119" viewBox="0 0 257 119" fill="none" xmlns="http://www.w3.org/2000/svg">
<path d="M76 87L101.375 107.125L87.75 118.625L62.8125 98.5L76 87ZM102.438 54.6875V58.375C102.438 65.3333 101.458 71.5833 99.5 77.125C97.5833 82.625 94.8333 87.3333 91.25 91.25C87.7083 95.125 83.5208 98.1042 78.6875 100.188C73.8542 102.229 68.5208 103.25 62.6875 103.25C56.8125 103.25 51.4375 102.229 46.5625 100.188C41.7292 98.1042 37.5208 95.125 33.9375 91.25C30.3958 87.3333 27.6458 82.625 25.6875 77.125C23.7708 71.5833 22.8125 65.3333 22.8125 58.375V54.6875C22.8125 47.7292 23.7708 41.4792 25.6875 35.9375C27.6458 30.3958 30.375 25.6875 33.875 21.8125C37.4167 17.8958 41.6042 14.9167 46.4375 12.875C51.3125 10.7917 56.6875 9.75 62.5625 9.75C68.3958 9.75 73.7292 10.7917 78.5625 12.875C83.4375 14.9167 87.6458 17.8958 91.1875 21.8125C94.7708 25.6875 97.5417 30.3958 99.5 35.9375C101.458 41.4792 102.438 47.7292 102.438 54.6875ZM80.125 58.375V54.5625C80.125 50.0625 79.7292 46.1042 78.9375 42.6875C78.1875 39.2292 77.0625 36.3333 75.5625 34C74.0625 31.6667 72.2083 29.9167 70 28.75C67.8333 27.5417 65.3542 26.9375 62.5625 26.9375C59.6458 26.9375 57.1042 27.5417 54.9375 28.75C52.7708 29.9167 50.9583 31.6667 49.5 34C48.0417 36.3333 46.9375 39.2292 46.1875 42.6875C45.4792 46.1042 45.125 50.0625 45.125 54.5625V58.375C45.125 62.8333 45.4792 66.7917 46.1875 70.25C46.9375 73.6667 48.0417 76.5625 49.5 78.9375C51 81.3125 52.8333 83.1042 55 84.3125C57.2083 85.5208 59.7708 86.125 62.6875 86.125C65.4792 86.125 67.9583 85.5208 70.125 84.3125C72.2917 83.1042 74.1042 81.3125 75.5625 78.9375C77.0625 76.5625 78.1875 73.6667 78.9375 70.25C79.7292 66.7917 80.125 62.8333 80.125 58.375ZM168.25 85.75V102H115.875V85.75H168.25ZM167.625 45.75L125.312 102H110.875V90.25L153.125 34.375H167.625V45.75ZM160.688 34.375V50.625H112.125V34.375H160.688ZM234.25 85.75V102H181.875V85.75H234.25ZM233.625 45.75L191.312 102H176.875V90.25L219.125 34.375H233.625V45.75ZM226.688 34.375V50.625H178.125V34.375H226.688Z" fill="white"/>
<path d="M108.216 26H234V9H93C98.0719 12 108.216 19.6 108.216 26Z" fill="white"/>
</svg>
